<svg version="1.1" preserveAspectRatio="none" xmlns="http://www.w3.org/2000/svg" width="500" height="500" viewBox="0 0 500 500"><rect width="100%" height="100%" fill="#FBFBFB" fill-opacity="1"/><svg viewBox="206.7856 35.5764 389.6063 252.5583" width="333" height="215.8638448608249" x="83.5px" y="142.0681px" xmlns="http://www.w3.org/2000/svg" xmlns:xlink="http://www.w3.org/1999/xlink" preserveAspectRatio="none"><defs></defs><style>.aDFQBjvS2colors-3 {fill:#EFEFEF;fill-opacity:1;}.aDFQBjvS2colors-4 {fill:#3E4AB8;fill-opacity:1;}.aDFQBjvS2colors-5 {fill:#A0A0A0;fill-opacity:1;}.aDFQBjvS2colors-6 {fill:#F5F7FF;fill-opacity:1;}.aDFQBjvS2colors-7 {fill:#3E4AB8;fill-opacity:1;}.companyName {fill:#0A0A0A;fill-opacity:1;}.icon1 {fill:#A0A0A0;fill-opacity:1;}.icon2 {fill:#FBFBFB;fill-opacity:1;}.icon3 {fill:#0A0A0A;fill-opacity:1;}.icon3-str {stroke:#0A0A0A;stroke-opacity:1;}.text {fill:#0A0A0A;fill-opacity:1;}</style><g opacity="1" transform="rotate(0 248.9673 267.2347)">
<svg width="305.2428" height="20.9" x="248.9673" y="267.2347" version="1.1" preserveAspectRatio="none" viewBox="1.64 -30.28 559 38.28">
  <g transform="matrix(1 0 0 1 0 0)" class="text"><path id="id-6izo4zJp26" d="M12.36 0.32Q9.20 0.32 6.26-0.66Q3.32-1.64 1.64-3.20L1.64-3.20L3.12-6.32Q4.72-4.88 7.22-3.98Q9.72-3.08 12.36-3.08L12.36-3.08Q15.84-3.08 17.56-4.26Q19.28-5.44 19.28-7.40L19.28-7.40Q19.28-8.84 18.34-9.74Q17.40-10.64 16.02-11.12Q14.64-11.60 12.12-12.20L12.12-12.20Q8.96-12.96 7.02-13.72Q5.08-14.48 3.70-16.06Q2.32-17.64 2.32-20.32L2.32-20.32Q2.32-22.56 3.50-24.36Q4.68-26.16 7.08-27.24Q9.48-28.32 13.04-28.32L13.04-28.32Q15.52-28.32 17.92-27.68Q20.32-27.04 22.04-25.84L22.04-25.84L20.72-22.64Q18.96-23.76 16.96-24.34Q14.96-24.92 13.04-24.92L13.04-24.92Q9.64-24.92 7.94-23.68Q6.24-22.44 6.24-20.48L6.24-20.48Q6.24-19.04 7.20-18.14Q8.16-17.24 9.58-16.74Q11-16.24 13.44-15.68L13.44-15.68Q16.60-14.92 18.52-14.16Q20.44-13.40 21.82-11.84Q23.20-10.28 23.20-7.64L23.20-7.64Q23.20-5.44 22-3.62Q20.80-1.80 18.36-0.74Q15.92 0.32 12.36 0.32L12.36 0.32Z M41.20-4L42.40-1.24Q41.56-0.52 40.32-0.14Q39.08 0.24 37.76 0.24L37.76 0.24Q34.56 0.24 32.80-1.48Q31.04-3.20 31.04-6.40L31.04-6.40L31.04-18.04L27.44-18.04L27.44-21.20L31.04-21.20L31.04-25.84L34.88-25.84L34.88-21.20L40.96-21.20L40.96-18.04L34.88-18.04L34.88-6.56Q34.88-4.84 35.74-3.92Q36.60-3 38.20-3L38.20-3Q39.96-3 41.20-4L41.20-4Z M56.76-21.40Q61.16-21.40 63.50-19.24Q65.84-17.08 65.84-12.80L65.84-12.80L65.84 0L62.20 0L62.20-2.80Q61.24-1.32 59.46-0.54Q57.68 0.24 55.24 0.24L55.24 0.24Q51.68 0.24 49.54-1.48Q47.40-3.20 47.40-6L47.40-6Q47.40-8.80 49.44-10.50Q51.48-12.20 55.92-12.20L55.92-12.20L62-12.20L62-12.96Q62-15.44 60.56-16.76Q59.12-18.08 56.32-18.08L56.32-18.08Q54.44-18.08 52.64-17.46Q50.84-16.84 49.60-15.80L49.60-15.80L48-18.68Q49.64-20 51.92-20.70Q54.20-21.40 56.76-21.40L56.76-21.40ZM55.88-2.72Q58.08-2.72 59.68-3.70Q61.28-4.68 62-6.48L62-6.48L62-9.44L56.08-9.44Q51.20-9.44 51.20-6.16L51.20-6.16Q51.20-4.56 52.44-3.64Q53.68-2.72 55.88-2.72L55.88-2.72Z M89.56-21.20L93.32-21.20L83.04 2.12Q81.68 5.36 79.86 6.68Q78.04 8 75.48 8L75.48 8Q73.92 8 72.46 7.50Q71.00 7 70.04 6.04L70.04 6.04L71.68 3.16Q73.32 4.72 75.48 4.72L75.48 4.72Q76.88 4.72 77.82 3.98Q78.76 3.24 79.52 1.44L79.52 1.44L80.20-0.04L70.84-21.20L74.84-21.20L82.24-4.24L89.56-21.20Z M140.32-21.20L143.76-21.20L135.84 0L132.16 0L126.04-16.08L119.84 0L116.16 0L108.28-21.20L111.92-21.20L118.08-4.32L124.48-21.20L127.72-21.20L134-4.24L140.32-21.20Z M149.64 0L149.64-21.20L153.48-21.20L153.48 0L149.64 0ZM151.56-25.28Q150.44-25.28 149.70-26Q148.96-26.72 148.96-27.76L148.96-27.76Q148.96-28.80 149.70-29.54Q150.44-30.28 151.56-30.28L151.56-30.28Q152.68-30.28 153.42-29.58Q154.16-28.88 154.16-27.84L154.16-27.84Q154.16-26.76 153.42-26.02Q152.68-25.28 151.56-25.28L151.56-25.28Z M173.52-4L174.72-1.24Q173.88-0.52 172.64-0.14Q171.40 0.24 170.08 0.24L170.08 0.24Q166.88 0.24 165.12-1.48Q163.36-3.20 163.36-6.40L163.36-6.40L163.36-18.04L159.76-18.04L159.76-21.20L163.36-21.20L163.36-25.84L167.20-25.84L167.20-21.20L173.28-21.20L173.28-18.04L167.20-18.04L167.20-6.56Q167.20-4.84 168.06-3.92Q168.92-3 170.52-3L170.52-3Q172.28-3 173.52-4L173.52-4Z M192.68-21.40Q196.72-21.40 199.10-19.06Q201.48-16.72 201.48-12.20L201.48-12.20L201.48 0L197.64 0L197.64-11.76Q197.64-14.84 196.16-16.40Q194.68-17.96 191.92-17.96L191.92-17.96Q188.80-17.96 187-16.14Q185.20-14.32 185.20-10.92L185.20-10.92L185.20 0L181.36 0L181.36-29.68L185.20-29.68L185.20-18.20Q186.40-19.72 188.34-20.56Q190.28-21.40 192.68-21.40L192.68-21.40Z M229.44 0.24Q226.84 0.24 224.44-0.46Q222.04-1.16 220.68-2.24L220.68-2.24L222.28-5.28Q223.68-4.28 225.68-3.68Q227.68-3.08 229.72-3.08L229.72-3.08Q234.76-3.08 234.76-5.96L234.76-5.96Q234.76-6.92 234.08-7.48Q233.40-8.04 232.38-8.30Q231.36-8.56 229.48-8.88L229.48-8.88Q226.92-9.28 225.30-9.80Q223.68-10.32 222.52-11.56Q221.36-12.80 221.36-15.04L221.36-15.04Q221.36-17.92 223.76-19.66Q226.16-21.40 230.20-21.40L230.20-21.40Q232.32-21.40 234.44-20.88Q236.56-20.36 237.92-19.48L237.92-19.48L236.28-16.44Q233.68-18.12 230.16-18.12L230.16-18.12Q227.72-18.12 226.44-17.32Q225.16-16.52 225.16-15.20L225.16-15.20Q225.16-14.16 225.88-13.56Q226.60-12.96 227.66-12.68Q228.72-12.40 230.64-12.04L230.64-12.04Q233.20-11.60 234.78-11.10Q236.36-10.60 237.48-9.40Q238.60-8.20 238.60-6.04L238.60-6.04Q238.60-3.16 236.14-1.46Q233.68 0.24 229.44 0.24L229.44 0.24Z M256.12-4L257.32-1.24Q256.48-0.52 255.24-0.14Q254 0.24 252.68 0.24L252.68 0.24Q249.48 0.24 247.72-1.48Q245.96-3.20 245.96-6.40L245.96-6.40L245.96-18.04L242.36-18.04L242.36-21.20L245.96-21.20L245.96-25.84L249.80-25.84L249.80-21.20L255.88-21.20L255.88-18.04L249.80-18.04L249.80-6.56Q249.80-4.84 250.66-3.92Q251.52-3 253.12-3L253.12-3Q254.88-3 256.12-4L256.12-4Z M278.56-21.20L282.32-21.20L272.04 2.12Q270.68 5.36 268.86 6.68Q267.04 8 264.48 8L264.48 8Q262.92 8 261.46 7.50Q260 7 259.04 6.04L259.04 6.04L260.68 3.16Q262.32 4.72 264.48 4.72L264.48 4.72Q265.88 4.72 266.82 3.98Q267.76 3.24 268.52 1.44L268.52 1.44L269.20-0.04L259.84-21.20L263.84-21.20L271.24-4.24L278.56-21.20Z M287.92 0L287.92-29.68L291.76-29.68L291.76 0L287.92 0Z M320.24-10.48Q320.24-10.04 320.16-9.32L320.16-9.32L302.96-9.32Q303.32-6.52 305.42-4.82Q307.52-3.12 310.64-3.12L310.64-3.12Q314.44-3.12 316.76-5.68L316.76-5.68L318.88-3.20Q317.44-1.52 315.30-0.64Q313.16 0.24 310.52 0.24L310.52 0.24Q307.16 0.24 304.56-1.14Q301.96-2.52 300.54-5Q299.12-7.48 299.12-10.60L299.12-10.60Q299.12-13.68 300.50-16.16Q301.88-18.64 304.30-20.02Q306.72-21.40 309.76-21.40L309.76-21.40Q312.80-21.40 315.18-20.02Q317.56-18.64 318.90-16.16Q320.24-13.68 320.24-10.48L320.24-10.48ZM309.76-18.16Q307.00-18.16 305.14-16.48Q303.28-14.80 302.96-12.08L302.96-12.08L316.56-12.08Q316.24-14.76 314.38-16.46Q312.52-18.16 309.76-18.16L309.76-18.16Z M328.52-5.24Q329.64-5.24 330.38-4.46Q331.12-3.68 331.12-2.52L331.12-2.52Q331.12-1.92 330.98-1.36Q330.84-0.80 330.44 0.36L330.44 0.36L328.56 5.92L326.04 5.92L327.52-0.04Q326.76-0.32 326.30-0.98Q325.84-1.64 325.84-2.52L325.84-2.52Q325.84-3.72 326.60-4.48Q327.36-5.24 328.52-5.24L328.52-5.24Z M362.64-21.40Q365.72-21.40 368.16-20.04Q370.60-18.68 371.98-16.24Q373.36-13.80 373.36-10.60L373.36-10.60Q373.36-7.40 371.98-4.94Q370.60-2.48 368.16-1.12Q365.72 0.24 362.64 0.24L362.64 0.24Q360.28 0.24 358.32-0.68Q356.36-1.60 355.08-3.36L355.08-3.36L355.08 0L351.40 0L351.40-29.68L355.24-29.68L355.24-18Q356.52-19.68 358.44-20.54Q360.36-21.40 362.64-21.40L362.64-21.40ZM362.32-3.12Q364.36-3.12 365.98-4.06Q367.60-5 368.54-6.70Q369.48-8.40 369.48-10.60L369.48-10.60Q369.48-12.80 368.54-14.50Q367.60-16.20 365.98-17.12Q364.36-18.04 362.32-18.04L362.32-18.04Q360.32-18.04 358.68-17.12Q357.04-16.20 356.12-14.50Q355.20-12.80 355.20-10.60L355.20-10.60Q355.20-8.40 356.12-6.70Q357.04-5 358.68-4.06Q360.32-3.12 362.32-3.12L362.32-3.12Z M384.36-17.64Q385.36-19.48 387.32-20.44Q389.28-21.40 392.08-21.40L392.08-21.40L392.08-17.68Q391.76-17.72 391.20-17.72L391.20-17.72Q388.08-17.72 386.30-15.86Q384.52-14 384.52-10.56L384.52-10.56L384.52 0L380.68 0L380.68-21.20L384.36-21.20L384.36-17.64Z M417.76-10.48Q417.76-10.04 417.68-9.32L417.68-9.32L400.48-9.32Q400.84-6.52 402.94-4.82Q405.04-3.12 408.16-3.12L408.16-3.12Q411.96-3.12 414.28-5.68L414.28-5.68L416.40-3.20Q414.96-1.52 412.82-0.64Q410.68 0.24 408.04 0.24L408.04 0.24Q404.68 0.24 402.08-1.14Q399.48-2.52 398.06-5Q396.64-7.48 396.64-10.60L396.64-10.60Q396.64-13.68 398.02-16.16Q399.40-18.64 401.82-20.02Q404.24-21.40 407.28-21.40L407.28-21.40Q410.32-21.40 412.70-20.02Q415.08-18.64 416.42-16.16Q417.76-13.68 417.76-10.48L417.76-10.48ZM407.28-18.16Q404.52-18.16 402.66-16.48Q400.80-14.80 400.48-12.08L400.48-12.08L414.08-12.08Q413.76-14.76 411.90-16.46Q410.04-18.16 407.28-18.16L407.28-18.16Z M444.24-10.48Q444.24-10.04 444.16-9.32L444.16-9.32L426.96-9.32Q427.32-6.52 429.42-4.82Q431.52-3.12 434.64-3.12L434.64-3.12Q438.44-3.12 440.76-5.68L440.76-5.68L442.88-3.20Q441.44-1.52 439.30-0.64Q437.16 0.24 434.52 0.24L434.52 0.24Q431.16 0.24 428.56-1.14Q425.96-2.52 424.54-5Q423.12-7.48 423.12-10.60L423.12-10.60Q423.12-13.68 424.50-16.16Q425.88-18.64 428.30-20.02Q430.72-21.40 433.76-21.40L433.76-21.40Q436.80-21.40 439.18-20.02Q441.56-18.64 442.90-16.16Q444.24-13.68 444.24-10.48L444.24-10.48ZM433.76-18.16Q431.00-18.16 429.14-16.48Q427.28-14.80 426.96-12.08L426.96-12.08L440.56-12.08Q440.24-14.76 438.38-16.46Q436.52-18.16 433.76-18.16L433.76-18.16Z M454.24-3.16L467.08-3.16L467.08 0L449.32 0L449.32-2.48L461.84-18.04L449.56-18.04L449.56-21.20L466.76-21.20L466.76-18.68L454.24-3.16Z M493.04-10.48Q493.04-10.04 492.96-9.32L492.96-9.32L475.76-9.32Q476.12-6.52 478.22-4.82Q480.32-3.12 483.44-3.12L483.44-3.12Q487.24-3.12 489.56-5.68L489.56-5.68L491.68-3.20Q490.24-1.52 488.10-0.64Q485.96 0.24 483.32 0.24L483.32 0.24Q479.96 0.24 477.36-1.14Q474.76-2.52 473.34-5Q471.92-7.48 471.92-10.60L471.92-10.60Q471.92-13.68 473.30-16.16Q474.68-18.64 477.10-20.02Q479.52-21.40 482.56-21.40L482.56-21.40Q485.60-21.40 487.98-20.02Q490.36-18.64 491.70-16.16Q493.04-13.68 493.04-10.48L493.04-10.48ZM482.56-18.16Q479.80-18.16 477.94-16.48Q476.08-14.80 475.76-12.08L475.76-12.08L489.36-12.08Q489.04-14.76 487.18-16.46Q485.32-18.16 482.56-18.16L482.56-18.16Z M522.20 0.24Q519.04 0.24 516.52-1.16Q514.00-2.56 512.58-5.02Q511.16-7.48 511.16-10.60L511.16-10.60Q511.16-13.72 512.58-16.18Q514.00-18.64 516.52-20.02Q519.04-21.40 522.20-21.40L522.20-21.40Q525.36-21.40 527.86-20.02Q530.36-18.64 531.78-16.18Q533.20-13.72 533.20-10.60L533.20-10.60Q533.20-7.48 531.78-5.02Q530.36-2.56 527.86-1.16Q525.36 0.24 522.20 0.24L522.20 0.24ZM522.20-3.12Q524.24-3.12 525.86-4.06Q527.48-5 528.40-6.70Q529.32-8.40 529.32-10.60L529.32-10.60Q529.32-12.80 528.40-14.50Q527.48-16.20 525.86-17.12Q524.24-18.04 522.20-18.04L522.20-18.04Q520.16-18.04 518.54-17.12Q516.92-16.20 515.98-14.50Q515.04-12.80 515.04-10.60L515.04-10.60Q515.04-8.40 515.98-6.70Q516.92-5 518.54-4.06Q520.16-3.12 522.20-3.12L522.20-3.12Z M551.84-21.40Q555.88-21.40 558.26-19.06Q560.64-16.72 560.64-12.20L560.64-12.20L560.64 0L556.80 0L556.80-11.76Q556.80-14.84 555.32-16.40Q553.84-17.96 551.08-17.96L551.08-17.96Q547.96-17.96 546.16-16.14Q544.36-14.32 544.36-10.92L544.36-10.92L544.36 0L540.52 0L540.52-21.20L544.20-21.20L544.20-18Q545.36-19.64 547.34-20.52Q549.32-21.40 551.84-21.40L551.84-21.40Z"/></g>
</svg>
</g><g opacity="1" transform="rotate(0 206.7856 209.2347)">
<svg width="389.6063" height="38" x="206.7856" y="209.2347" version="1.1" preserveAspectRatio="none" viewBox="3.32 -31.48 402.32 39.24">
  <g transform="matrix(1 0 0 1 0 0)" class="companyName"><path id="id-D6z1nYkh15" d="M23.88-14.56Q26.28-13.80 27.64-12.02Q29-10.24 29-7.64L29-7.64Q29-3.96 26.14-1.98Q23.28 0 17.80 0L17.80 0L3.32 0L3.32-28L17-28Q22.12-28 24.86-26.04Q27.60-24.08 27.60-20.72L27.60-20.72Q27.60-18.68 26.62-17.08Q25.64-15.48 23.88-14.56L23.88-14.56ZM16.20-23.12L9.76-23.12L9.76-16.52L16.20-16.52Q18.60-16.52 19.84-17.36Q21.08-18.20 21.08-19.84L21.08-19.84Q21.08-21.48 19.84-22.30Q18.60-23.12 16.20-23.12L16.20-23.12ZM17.32-4.88Q19.88-4.88 21.18-5.72Q22.48-6.56 22.48-8.32L22.48-8.32Q22.48-11.80 17.32-11.80L17.32-11.80L9.76-11.80L9.76-4.88L17.32-4.88Z M43.52-18.68Q44.64-20.24 46.54-21.04Q48.44-21.84 50.92-21.84L50.92-21.84L50.92-16.08Q49.88-16.16 49.52-16.16L49.52-16.16Q46.84-16.16 45.32-14.66Q43.80-13.16 43.80-10.16L43.80-10.16L43.80 0L37.56 0L37.56-21.52L43.52-21.52L43.52-18.68Z M79.60-10.68Q79.60-10.56 79.48-9L79.48-9L63.20-9Q63.64-7 65.28-5.84Q66.92-4.68 69.36-4.68L69.36-4.68Q71.04-4.68 72.34-5.18Q73.64-5.68 74.76-6.76L74.76-6.76L78.08-3.16Q75.04 0.32 69.20 0.32L69.20 0.32Q65.56 0.32 62.76-1.10Q59.96-2.52 58.44-5.04Q56.92-7.56 56.92-10.76L56.92-10.76Q56.92-13.92 58.42-16.46Q59.92-19 62.54-20.42Q65.16-21.84 68.40-21.84L68.40-21.84Q71.56-21.84 74.12-20.48Q76.68-19.12 78.14-16.58Q79.60-14.04 79.60-10.68L79.60-10.68ZM68.44-17.12Q66.32-17.12 64.88-15.92Q63.44-14.72 63.12-12.64L63.12-12.64L73.72-12.64Q73.40-14.68 71.96-15.90Q70.52-17.12 68.44-17.12L68.44-17.12Z M108.92-10.68Q108.92-10.56 108.80-9L108.80-9L92.52-9Q92.96-7 94.60-5.84Q96.24-4.68 98.68-4.68L98.68-4.68Q100.36-4.68 101.66-5.18Q102.96-5.68 104.08-6.76L104.08-6.76L107.40-3.16Q104.36 0.32 98.52 0.32L98.52 0.32Q94.88 0.32 92.08-1.10Q89.28-2.52 87.76-5.04Q86.24-7.56 86.24-10.76L86.24-10.76Q86.24-13.92 87.74-16.46Q89.24-19 91.86-20.42Q94.48-21.84 97.72-21.84L97.72-21.84Q100.88-21.84 103.44-20.48Q106-19.12 107.46-16.58Q108.92-14.04 108.92-10.68L108.92-10.68ZM97.76-17.12Q95.64-17.12 94.20-15.92Q92.76-14.72 92.44-12.64L92.44-12.64L103.04-12.64Q102.72-14.68 101.28-15.90Q99.84-17.12 97.76-17.12L97.76-17.12Z M123.36-4.80L134.68-4.80L134.68 0L115.48 0L115.48-3.76L126.44-16.72L115.76-16.72L115.76-21.52L134.32-21.52L134.32-17.76L123.36-4.80Z M163.56-10.68Q163.56-10.56 163.44-9L163.44-9L147.16-9Q147.60-7 149.24-5.84Q150.88-4.68 153.32-4.68L153.32-4.68Q155-4.68 156.30-5.18Q157.60-5.68 158.72-6.76L158.72-6.76L162.04-3.16Q159 0.32 153.16 0.32L153.16 0.32Q149.52 0.32 146.72-1.10Q143.92-2.52 142.40-5.04Q140.88-7.56 140.88-10.76L140.88-10.76Q140.88-13.92 142.38-16.46Q143.88-19 146.50-20.42Q149.12-21.84 152.36-21.84L152.36-21.84Q155.52-21.84 158.08-20.48Q160.64-19.12 162.10-16.58Q163.56-14.04 163.56-10.68L163.56-10.68ZM152.40-17.12Q150.28-17.12 148.84-15.92Q147.40-14.72 147.08-12.64L147.08-12.64L157.68-12.64Q157.36-14.68 155.92-15.90Q154.48-17.12 152.40-17.12L152.40-17.12Z M208.20-14.56Q210.60-13.80 211.96-12.02Q213.32-10.24 213.32-7.64L213.32-7.64Q213.32-3.96 210.46-1.98Q207.60 0 202.12 0L202.12 0L187.64 0L187.64-28L201.32-28Q206.44-28 209.18-26.04Q211.92-24.08 211.92-20.72L211.92-20.72Q211.92-18.68 210.94-17.08Q209.96-15.48 208.20-14.56L208.20-14.56ZM200.52-23.12L194.08-23.12L194.08-16.52L200.52-16.52Q202.92-16.52 204.16-17.36Q205.40-18.20 205.40-19.84L205.40-19.84Q205.40-21.48 204.16-22.30Q202.92-23.12 200.52-23.12L200.52-23.12ZM201.64-4.88Q204.20-4.88 205.50-5.72Q206.80-6.56 206.80-8.32L206.80-8.32Q206.80-11.80 201.64-11.80L201.64-11.80L194.08-11.80L194.08-4.88L201.64-4.88Z M232.12 0.32Q228.72 0.32 226.02-1.10Q223.32-2.52 221.80-5.04Q220.28-7.56 220.28-10.76L220.28-10.76Q220.28-13.96 221.80-16.48Q223.32-19 226.02-20.42Q228.72-21.84 232.12-21.84L232.12-21.84Q235.52-21.84 238.20-20.42Q240.88-19 242.40-16.48Q243.92-13.96 243.92-10.76L243.92-10.76Q243.92-7.56 242.40-5.04Q240.88-2.52 238.20-1.10Q235.52 0.32 232.12 0.32L232.12 0.32ZM232.12-4.80Q234.52-4.80 236.06-6.42Q237.60-8.04 237.60-10.76L237.60-10.76Q237.60-13.48 236.06-15.10Q234.52-16.72 232.12-16.72L232.12-16.72Q229.72-16.72 228.16-15.10Q226.60-13.48 226.60-10.76L226.60-10.76Q226.60-8.04 228.16-6.42Q229.72-4.80 232.12-4.80L232.12-4.80Z M267.60-21.52L273.84-21.52L273.84 0L267.92 0L267.92-2.56Q266.68-1.16 264.96-0.42Q263.24 0.32 261.24 0.32L261.24 0.32Q257.00 0.32 254.52-2.12Q252.04-4.56 252.04-9.36L252.04-9.36L252.04-21.52L258.28-21.52L258.28-10.28Q258.28-5.08 262.64-5.08L262.64-5.08Q264.88-5.08 266.24-6.54Q267.60-8 267.60-10.88L267.60-10.88L267.60-21.52Z M295.92-5.44L297.60-1.04Q296.68-0.36 295.34-0.02Q294.00 0.32 292.52 0.32L292.52 0.32Q288.68 0.32 286.58-1.64Q284.48-3.60 284.48-7.40L284.48-7.40L284.48-16.24L281.16-16.24L281.16-21.04L284.48-21.04L284.48-26.28L290.72-26.28L290.72-21.04L296.08-21.04L296.08-16.24L290.72-16.24L290.72-7.48Q290.72-6.12 291.42-5.38Q292.12-4.64 293.40-4.64L293.40-4.64Q294.88-4.64 295.92-5.44L295.92-5.44Z M305.20 0L305.20-21.52L311.44-21.52L311.44 0L305.20 0ZM308.32-24.52Q306.60-24.52 305.52-25.52Q304.44-26.52 304.44-28L304.44-28Q304.44-29.48 305.52-30.48Q306.60-31.48 308.32-31.48L308.32-31.48Q310.04-31.48 311.12-30.52Q312.20-29.56 312.20-28.12L312.20-28.12Q312.20-26.56 311.12-25.54Q310.04-24.52 308.32-24.52L308.32-24.52Z M337.20-21.52L343.16-21.52L343.16 7.76L336.92 7.76L336.92-2.28Q334.60 0.32 330.48 0.32L330.48 0.32Q327.44 0.32 324.98-1.04Q322.52-2.40 321.12-4.92Q319.72-7.44 319.72-10.76L319.72-10.76Q319.72-14.08 321.12-16.60Q322.52-19.12 324.98-20.48Q327.44-21.84 330.48-21.84L330.48-21.84Q334.88-21.84 337.20-19.04L337.20-19.04L337.20-21.52ZM331.56-4.80Q333.92-4.80 335.48-6.42Q337.04-8.04 337.04-10.76L337.04-10.76Q337.04-13.48 335.48-15.10Q333.92-16.72 331.56-16.72L331.56-16.72Q329.16-16.72 327.60-15.10Q326.04-13.48 326.04-10.76L326.04-10.76Q326.04-8.04 327.60-6.42Q329.16-4.80 331.56-4.80L331.56-4.80Z M368.44-21.52L374.68-21.52L374.68 0L368.76 0L368.76-2.56Q367.52-1.16 365.80-0.42Q364.08 0.32 362.08 0.32L362.08 0.32Q357.84 0.32 355.36-2.12Q352.88-4.56 352.88-9.36L352.88-9.36L352.88-21.52L359.12-21.52L359.12-10.28Q359.12-5.08 363.48-5.08L363.48-5.08Q365.72-5.08 367.08-6.54Q368.44-8 368.44-10.88L368.44-10.88L368.44-21.52Z M405.64-10.68Q405.64-10.56 405.52-9L405.52-9L389.24-9Q389.68-7 391.32-5.84Q392.96-4.68 395.40-4.68L395.40-4.68Q397.08-4.68 398.38-5.18Q399.68-5.68 400.80-6.76L400.80-6.76L404.12-3.16Q401.08 0.32 395.24 0.32L395.24 0.32Q391.60 0.32 388.80-1.10Q386-2.52 384.48-5.04Q382.96-7.56 382.96-10.76L382.96-10.76Q382.96-13.92 384.46-16.46Q385.96-19 388.58-20.42Q391.20-21.84 394.44-21.84L394.44-21.84Q397.60-21.84 400.16-20.48Q402.72-19.12 404.18-16.58Q405.64-14.04 405.64-10.68L405.64-10.68ZM394.48-17.12Q392.36-17.12 390.92-15.92Q389.48-14.72 389.16-12.64L389.16-12.64L399.76-12.64Q399.44-14.68 398-15.90Q396.56-17.12 394.48-17.12L394.48-17.12Z"/></g>
</svg>
</g><g opacity="1" transform="rotate(0 323.6675 35.5764)">
<svg width="155.8425" height="133.6583" x="323.6675" y="35.5764" version="1.1" preserveAspectRatio="none" viewBox="10.219120025634766 15.877467155456543 79.57400512695312 68.24661254882812">
  <g transform="matrix(1 0 0 1 0 0)" class="icon1"><path d="m78.414 81.16c0.11719-0.011718 0.20703-0.10547 0.20313-0.22266l-0.15234-4.457 3.3086 1.1641c0.085937 0.03125 0.17969 0.007813 0.24219-0.0625 0.082031-0.09375 0.070313-0.23438-0.019531-0.3125-0.44922-0.39453-0.98047-1.1523-1.418-1.9688-0.36328-0.67578-0.66016-1.3789-0.78906-1.9414l1.7891 0.26172c0.074219 0.015625 0.15625-0.011719 0.21094-0.070313 0.082032-0.09375 0.074219-0.23438-0.019531-0.31641-0.69141-0.60938-1.207-1.1836-1.6133-1.7305-0.32812-0.44141-0.58984-0.87109-0.82031-1.2852l1.1602-0.11328c0.078125-0.003907 0.15625-0.050781 0.19141-0.12891 0.050781-0.11328 0.003906-0.24609-0.10547-0.29687-0.74219-0.35156-1.3164-0.87891-1.7617-1.4844-0.54687-0.75391-0.89844-1.6328-1.1133-2.4727-0.019531-0.09375-0.097656-0.16406-0.19922-0.17578-0.12109-0.011719-0.23047 0.082031-0.24219 0.20312-0.046875 0.54297-0.41797 1.2383-0.90625 1.918-0.625 0.86719-1.4375 1.6914-2.043 2.1445-0.046875 0.03125-0.082031 0.078125-0.097656 0.14062-0.027344 0.12109 0.050781 0.23828 0.17188 0.26562 0.17578 0.039062 0.29297 0.066406 0.39453 0.089844 0.44531 0.10156 0.60938 0.14062 1.1016 0.14453-0.20703 0.53125-0.44922 0.94531-0.78516 1.3594-0.40234 0.49609-0.94531 1.0039-1.7266 1.707-0.058594 0.046875-0.09375 0.12891-0.082031 0.21094 0.019531 0.12109 0.13281 0.20312 0.25391 0.18359l2-0.32812c-0.28125 0.94531-1.4492 2.4102-2.2305 3.3906-0.14453 0.17969-0.27344 0.34375-0.39844 0.50781-0.042969 0.058594-0.058594 0.13672-0.035157 0.21094 0.042969 0.11719 0.16797 0.17578 0.28516 0.13281l3.832-1.3828-0.089844 4.4961v0.003906c0 0.12109 0.097656 0.22266 0.21875 0.22266h-4.3438c-0.23047 0-0.41797-0.1875-0.41797-0.41797v-44.016l-3.668-4.3828h-10.613v48.398c0 0.23047-0.1875 0.41797-0.41797 0.41797s-0.41797-0.1875-0.41797-0.41797l0.003906-50.852-5.6719-5.5898h-6.6211c-0.003907-0.03125 0.011718-0.058594 0-0.085938l-0.82422-2.707 2.2617-1.707c0.16406-0.125 0.23437-0.33984 0.16797-0.53906-0.0625-0.19922-0.24609-0.33203-0.45312-0.33594l-2.8281-0.050782-0.92578-2.6758c-0.066406-0.19531-0.25391-0.32812-0.46094-0.32812-0.20703 0-0.39063 0.13281-0.46094 0.32812l-0.92188 2.6758-2.832 0.054688c-0.20703 0.003906-0.39062 0.14062-0.45312 0.33594-0.0625 0.19922 0.003906 0.41406 0.16797 0.53906l2.2578 1.707-0.82422 2.7109c-0.007812 0.03125 0.003907 0.058593 0 0.085937h-6.625l-5.0586 5.8086v50.617c0 0.23047-0.1875 0.41797-0.41797 0.41797s-0.41797-0.1875-0.41797-0.41797v-48.398h-10.613l-3.668 4.3828v44.016c0 0.23047-0.1875 0.41797-0.41797 0.41797h-1.3945v2.9648h79.574v-2.9648zm-62.672-40.73c0-0.23047 0.1875-0.41797 0.41797-0.41797h2.2734c0.23047 0 0.41797 0.1875 0.41797 0.41797 0 0.23047-0.1875 0.41797-0.41797 0.41797h-1.8555v2.7617c0 0.23047-0.1875 0.41797-0.41797 0.41797-0.23047 0-0.41797-0.1875-0.41797-0.41797zm0 6.3594c0-0.23047 0.1875-0.41797 0.41797-0.41797h2.2734c0.23047 0 0.41797 0.1875 0.41797 0.41797 0 0.23047-0.1875 0.41797-0.41797 0.41797h-1.8555v2.7617c0 0.23047-0.1875 0.41797-0.41797 0.41797-0.23047 0-0.41797-0.1875-0.41797-0.41797zm0 6.3594c0-0.23047 0.1875-0.41797 0.41797-0.41797h2.2734c0.23047 0 0.41797 0.1875 0.41797 0.41797 0 0.23047-0.1875 0.41797-0.41797 0.41797h-1.8555v2.7617c0 0.23047-0.1875 0.41797-0.41797 0.41797-0.23047 0-0.41797-0.1875-0.41797-0.41797zm0 6.3594c0-0.23047 0.1875-0.41797 0.41797-0.41797h2.2734c0.23047 0 0.41797 0.1875 0.41797 0.41797 0 0.23047-0.1875 0.41797-0.41797 0.41797h-1.8555v2.7617c0 0.23047-0.1875 0.41797-0.41797 0.41797-0.23047 0-0.41797-0.1875-0.41797-0.41797zm7.1914 8.3242h-7.8281c-0.23047 0-0.41797-0.1875-0.41797-0.41797 0-0.23047 0.1875-0.41797 0.41797-0.41797h7.8281c0.23047 0 0.41797 0.1875 0.41797 0.41797 0 0.23047-0.1875 0.41797-0.41797 0.41797zm0.050781-7.9023h-1.8555v2.7617c0 0.23047-0.1875 0.41797-0.41797 0.41797-0.23047 0-0.41797-0.1875-0.41797-0.41797v-3.1797c0-0.23047 0.1875-0.41797 0.41797-0.41797h2.2734c0.23047 0 0.41797 0.1875 0.41797 0.41797s-0.1875 0.41797-0.41797 0.41797zm0-6.3594h-1.8555v2.7617c0 0.23047-0.1875 0.41797-0.41797 0.41797-0.23047 0-0.41797-0.1875-0.41797-0.41797v-3.1797c0-0.23047 0.1875-0.41797 0.41797-0.41797h2.2734c0.23047 0 0.41797 0.1875 0.41797 0.41797 0 0.23047-0.1875 0.41797-0.41797 0.41797zm0-6.3594h-1.8555v2.7617c0 0.23047-0.1875 0.41797-0.41797 0.41797-0.23047 0-0.41797-0.1875-0.41797-0.41797v-3.1797c0-0.23047 0.1875-0.41797 0.41797-0.41797h2.2734c0.23047 0 0.41797 0.1875 0.41797 0.41797s-0.1875 0.41797-0.41797 0.41797zm0-6.3594h-1.8555v2.7617c0 0.23047-0.1875 0.41797-0.41797 0.41797-0.23047 0-0.41797-0.1875-0.41797-0.41797v-3.1797c0-0.23047 0.1875-0.41797 0.41797-0.41797h2.2734c0.23047 0 0.41797 0.1875 0.41797 0.41797 0 0.23047-0.1875 0.41797-0.41797 0.41797zm16.125-20.969 1.7617-0.03125c0.20312-0.003906 0.38281-0.13672 0.45312-0.32812l0.57422-1.6641 0.57422 1.6641c0.066406 0.19141 0.24609 0.32422 0.45312 0.32812l1.7617 0.03125-1.4062 1.0625c-0.16406 0.125-0.23047 0.33594-0.17188 0.53125l0.51172 1.6836-1.4453-1.0078c-0.082031-0.058594-0.17969-0.085938-0.27734-0.085938-0.097657 0-0.19531 0.03125-0.27734 0.085938l-1.4414 1.0078 0.51172-1.6875c0.058594-0.19531-0.007812-0.40625-0.17188-0.53125l-1.4062-1.0625zm2.7852 3.2617 1.6719 1.168h-3.3438zm6.8594 58.016h-5.5039v-8.0195h5.5039zm-7.7773 0h-5.4961v-8.0195h5.4961zm11.184-14.785h-20.984c-0.23047 0-0.41797-0.1875-0.41797-0.41797s0.1875-0.41797 0.41797-0.41797h20.984c0.23047 0 0.41797 0.1875 0.41797 0.41797s-0.1875 0.41797-0.41797 0.41797zm-19.66-21.219h2.6758c0.23047 0 0.41797 0.1875 0.41797 0.41797s-0.1875 0.41797-0.41797 0.41797h-2.2578v2.7617c0 0.23047-0.1875 0.41797-0.41797 0.41797s-0.41797-0.1875-0.41797-0.41797v-3.1797c0-0.23047 0.1875-0.41797 0.41797-0.41797zm-0.41797-2.7617v-3.1797c0-0.23047 0.1875-0.41797 0.41797-0.41797h2.6758c0.23047 0 0.41797 0.1875 0.41797 0.41797 0 0.23047-0.1875 0.41797-0.41797 0.41797h-2.2578v2.7617c0 0.23047-0.1875 0.41797-0.41797 0.41797s-0.41797-0.1875-0.41797-0.41797zm0.41797 9.1211h2.6758c0.23047 0 0.41797 0.1875 0.41797 0.41797 0 0.23047-0.1875 0.41797-0.41797 0.41797h-2.2578v2.7617c0 0.23047-0.1875 0.41797-0.41797 0.41797s-0.41797-0.1875-0.41797-0.41797v-3.1797c0-0.23047 0.1875-0.41797 0.41797-0.41797zm0 6.3594h2.6758c0.23047 0 0.41797 0.1875 0.41797 0.41797s-0.1875 0.41797-0.41797 0.41797h-2.2578v2.7617c0 0.23047-0.1875 0.41797-0.41797 0.41797s-0.41797-0.1875-0.41797-0.41797v-3.1797c0-0.23047 0.1875-0.41797 0.41797-0.41797zm5.3516-12.719h2.6758c0.23047 0 0.41797 0.1875 0.41797 0.41797s-0.1875 0.41797-0.41797 0.41797h-2.2578v2.7617c0 0.23047-0.1875 0.41797-0.41797 0.41797-0.23047 0-0.41797-0.1875-0.41797-0.41797v-3.1797c0-0.23047 0.1875-0.41797 0.41797-0.41797zm-0.41797-2.7617v-3.1797c0-0.23047 0.1875-0.41797 0.41797-0.41797h2.6758c0.23047 0 0.41797 0.1875 0.41797 0.41797 0 0.23047-0.1875 0.41797-0.41797 0.41797h-2.2578v2.7617c0 0.23047-0.1875 0.41797-0.41797 0.41797-0.23047 0-0.41797-0.1875-0.41797-0.41797zm0.41797 9.1211h2.6758c0.23047 0 0.41797 0.1875 0.41797 0.41797 0 0.23047-0.1875 0.41797-0.41797 0.41797h-2.2578v2.7617c0 0.23047-0.1875 0.41797-0.41797 0.41797-0.23047 0-0.41797-0.1875-0.41797-0.41797v-3.1797c0-0.23047 0.1875-0.41797 0.41797-0.41797zm0 6.3594h2.6758c0.23047 0 0.41797 0.1875 0.41797 0.41797s-0.1875 0.41797-0.41797 0.41797h-2.2578v2.7617c0 0.23047-0.1875 0.41797-0.41797 0.41797-0.23047 0-0.41797-0.1875-0.41797-0.41797v-3.1797c0-0.23047 0.1875-0.41797 0.41797-0.41797zm5.3516-12.719h2.6758c0.23047 0 0.41797 0.1875 0.41797 0.41797s-0.1875 0.41797-0.41797 0.41797h-2.2578v2.7617c0 0.23047-0.1875 0.41797-0.41797 0.41797s-0.41797-0.1875-0.41797-0.41797v-3.1797c0-0.23047 0.1875-0.41797 0.41797-0.41797zm-0.41797-2.7617v-3.1797c0-0.23047 0.1875-0.41797 0.41797-0.41797h2.6758c0.23047 0 0.41797 0.1875 0.41797 0.41797 0 0.23047-0.1875 0.41797-0.41797 0.41797h-2.2578v2.7617c0 0.23047-0.1875 0.41797-0.41797 0.41797s-0.41797-0.1875-0.41797-0.41797zm0.41797 9.1211h2.6758c0.23047 0 0.41797 0.1875 0.41797 0.41797 0 0.23047-0.1875 0.41797-0.41797 0.41797h-2.2578v2.7617c0 0.23047-0.1875 0.41797-0.41797 0.41797s-0.41797-0.1875-0.41797-0.41797v-3.1797c0-0.23047 0.1875-0.41797 0.41797-0.41797zm0 6.3594h2.6758c0.23047 0 0.41797 0.1875 0.41797 0.41797s-0.1875 0.41797-0.41797 0.41797h-2.2578v2.7617c0 0.23047-0.1875 0.41797-0.41797 0.41797s-0.41797-0.1875-0.41797-0.41797v-3.1797c0-0.23047 0.1875-0.41797 0.41797-0.41797zm5.3516-12.719h2.6758c0.23047 0 0.41797 0.1875 0.41797 0.41797s-0.1875 0.41797-0.41797 0.41797h-2.2578v2.7617c0 0.23047-0.1875 0.41797-0.41797 0.41797-0.23047 0-0.41797-0.1875-0.41797-0.41797v-3.1797c0-0.23047 0.1875-0.41797 0.41797-0.41797zm-0.41797-2.7617v-3.1797c0-0.23047 0.1875-0.41797 0.41797-0.41797h2.6758c0.23047 0 0.41797 0.1875 0.41797 0.41797 0 0.23047-0.1875 0.41797-0.41797 0.41797h-2.2578v2.7617c0 0.23047-0.1875 0.41797-0.41797 0.41797-0.23047 0-0.41797-0.1875-0.41797-0.41797zm0.41797 9.1211h2.6758c0.23047 0 0.41797 0.1875 0.41797 0.41797 0 0.23047-0.1875 0.41797-0.41797 0.41797h-2.2578v2.7617c0 0.23047-0.1875 0.41797-0.41797 0.41797-0.23047 0-0.41797-0.1875-0.41797-0.41797v-3.1797c0-0.23047 0.1875-0.41797 0.41797-0.41797zm0 6.3594h2.6758c0.23047 0 0.41797 0.1875 0.41797 0.41797s-0.1875 0.41797-0.41797 0.41797h-2.2578v2.7617c0 0.23047-0.1875 0.41797-0.41797 0.41797-0.23047 0-0.41797-0.1875-0.41797-0.41797v-3.1797c0-0.23047 0.1875-0.41797 0.41797-0.41797zm3.6016-25.039h-20.984c-0.23047 0-0.41797-0.1875-0.41797-0.41797s0.1875-0.41797 0.41797-0.41797h20.984c0.23047 0 0.41797 0.1875 0.41797 0.41797s-0.1875 0.41797-0.41797 0.41797zm13.055 7.5938c0-0.23047 0.1875-0.41797 0.41797-0.41797h2.2734c0.23047 0 0.41797 0.1875 0.41797 0.41797 0 0.23047-0.1875 0.41797-0.41797 0.41797h-1.8555v2.7617c0 0.23047-0.1875 0.41797-0.41797 0.41797-0.23047 0-0.41797-0.1875-0.41797-0.41797zm0 6.3594c0-0.23047 0.1875-0.41797 0.41797-0.41797h2.2734c0.23047 0 0.41797 0.1875 0.41797 0.41797 0 0.23047-0.1875 0.41797-0.41797 0.41797h-1.8555v2.7617c0 0.23047-0.1875 0.41797-0.41797 0.41797-0.23047 0-0.41797-0.1875-0.41797-0.41797zm0 6.3594c0-0.23047 0.1875-0.41797 0.41797-0.41797h2.2734c0.23047 0 0.41797 0.1875 0.41797 0.41797 0 0.23047-0.1875 0.41797-0.41797 0.41797h-1.8555v2.7617c0 0.23047-0.1875 0.41797-0.41797 0.41797-0.23047 0-0.41797-0.1875-0.41797-0.41797zm0 6.3594c0-0.23047 0.1875-0.41797 0.41797-0.41797h2.2734c0.23047 0 0.41797 0.1875 0.41797 0.41797 0 0.23047-0.1875 0.41797-0.41797 0.41797h-1.8555v2.7617c0 0.23047-0.1875 0.41797-0.41797 0.41797-0.23047 0-0.41797-0.1875-0.41797-0.41797zm-4.5469-19.082c0-0.23047 0.1875-0.41797 0.41797-0.41797h2.2734c0.23047 0 0.41797 0.1875 0.41797 0.41797s-0.1875 0.41797-0.41797 0.41797h-1.8555v2.7617c0 0.23047-0.1875 0.41797-0.41797 0.41797s-0.41797-0.1875-0.41797-0.41797zm0 6.3594c0-0.23047 0.1875-0.41797 0.41797-0.41797h2.2734c0.23047 0 0.41797 0.1875 0.41797 0.41797 0 0.23047-0.1875 0.41797-0.41797 0.41797h-1.8555v2.7617c0 0.23047-0.1875 0.41797-0.41797 0.41797s-0.41797-0.1875-0.41797-0.41797zm0 6.3594c0-0.23047 0.1875-0.41797 0.41797-0.41797h2.2734c0.23047 0 0.41797 0.1875 0.41797 0.41797s-0.1875 0.41797-0.41797 0.41797h-1.8555v2.7617c0 0.23047-0.1875 0.41797-0.41797 0.41797s-0.41797-0.1875-0.41797-0.41797zm0 6.3594c0-0.23047 0.1875-0.41797 0.41797-0.41797h2.2734c0.23047 0 0.41797 0.1875 0.41797 0.41797 0 0.23047-0.1875 0.41797-0.41797 0.41797h-1.8555v2.7617c0 0.23047-0.1875 0.41797-0.41797 0.41797s-0.41797-0.1875-0.41797-0.41797zm8.8242 8.1133h-8.5469c-0.23047 0-0.41797-0.1875-0.41797-0.41797s0.1875-0.41797 0.41797-0.41797h8.5469c0.23047 0 0.41797 0.1875 0.41797 0.41797s-0.1875 0.41797-0.41797 0.41797zm12.645 7.5234c-0.011718-0.082031 0.019532-0.16016 0.082032-0.21094 0.625-0.56641 1.0625-0.97266 1.3867-1.3711 0.25781-0.31641 0.44531-0.62891 0.60547-1.0273-0.35156-0.003906-0.48828-0.035156-0.83203-0.11719-0.078125-0.019531-0.17188-0.039062-0.31641-0.070312-0.12109-0.027344-0.19531-0.14453-0.17188-0.26562 0.011719-0.058594 0.046875-0.10938 0.097656-0.14062 0.48438-0.36328 1.1367-1.0234 1.6367-1.7188 0.39062-0.53906 0.68359-1.0938 0.72266-1.5234 0.011719-0.12109 0.11719-0.21484 0.24219-0.20312 0.10156 0.007812 0.17969 0.082031 0.19922 0.17578 0.17188 0.67188 0.45312 1.3789 0.89062 1.9805 0.35547 0.48437 0.8125 0.90625 1.4023 1.1836 0.11328 0.050781 0.16016 0.18359 0.10547 0.29688-0.035156 0.078125-0.11328 0.125-0.19141 0.12891l-0.86719 0.085938c0.17578 0.31641 0.37891 0.64062 0.625 0.97266 0.32422 0.4375 0.73828 0.89844 1.293 1.3906 0.09375 0.082031 0.10156 0.22266 0.019531 0.31641-0.054688 0.0625-0.13672 0.085937-0.21094 0.070312l-1.3789-0.19922c0.10938 0.4375 0.33984 0.97656 0.61719 1.4922 0.35156 0.65234 0.77734 1.2617 1.1367 1.5742 0.09375 0.082031 0.10156 0.22266 0.019532 0.3125-0.0625 0.070312-0.16016 0.09375-0.24219 0.0625l-2.6094-0.91797 0.12109 3.4531c0.003906 0.12109-0.09375 0.22656-0.21484 0.23047l-1.0117 0.039063c-0.12109 0.003906-0.22656-0.09375-0.23047-0.21484v-0.019531l0.0625-3.5195-3.0312 1.0938c-0.11719 0.042969-0.24219-0.019531-0.28516-0.13281-0.027344-0.074218-0.011719-0.15234 0.035156-0.21094 0.10156-0.13281 0.20703-0.26562 0.32422-0.41016 0.60938-0.76562 1.5117-1.8984 1.7695-2.6523l-1.543 0.25391c-0.12109 0.019531-0.23438-0.0625-0.25391-0.18359z"></path></g>
</svg>
</g></svg></svg>